<?xml version="1.0" encoding="UTF-8" standalone="no"?>
<svg
   xmlns:dc="http://purl.org/dc/elements/1.1/"
   xmlns:cc="http://creativecommons.org/ns#"
   xmlns:rdf="http://www.w3.org/1999/02/22-rdf-syntax-ns#"
   xmlns:svg="http://www.w3.org/2000/svg"
   xmlns="http://www.w3.org/2000/svg"
   xmlns:xlink="http://www.w3.org/1999/xlink"
   xmlns:sodipodi="http://sodipodi.sourceforge.net/DTD/sodipodi-0.dtd"
   xmlns:inkscape="http://www.inkscape.org/namespaces/inkscape"
   width="352"
   height="352"
   viewBox="0 0 352 352"
   overflow="hidden"
   version="1.1"
   id="svg13"
   sodipodi:docname="Discord_Canary_2021.svg"
   inkscape:version="1.0.2-2 (e86c870879, 2021-01-15)">
  <metadata
     id="metadata17">
    <rdf:RDF>
      <cc:Work
         rdf:about="">
        <dc:format>image/svg+xml</dc:format>
        <dc:type
           rdf:resource="http://purl.org/dc/dcmitype/StillImage" />
        <dc:title></dc:title>
      </cc:Work>
    </rdf:RDF>
  </metadata>
  <sodipodi:namedview
     pagecolor="#ffffff"
     bordercolor="#666666"
     borderopacity="1"
     objecttolerance="10"
     gridtolerance="10"
     guidetolerance="10"
     inkscape:pageopacity="0"
     inkscape:pageshadow="2"
     inkscape:window-width="1920"
     inkscape:window-height="1001"
     id="namedview15"
     showgrid="false"
     inkscape:zoom="1.0665722"
     inkscape:cx="53.327387"
     inkscape:cy="169.20483"
     inkscape:window-x="-9"
     inkscape:window-y="-9"
     inkscape:window-maximized="1"
     inkscape:current-layer="g11" />
  <g
     id="g11">
    <path
       d="M 0,176 C 0,78.798 78.798,0 176,0 273.202,0 352,78.798 352,176 352,273.202 273.202,352 176,352 78.798,352 0,273.202 0,176 Z"
       fill-rule="evenodd"
       id="path7"
       style="fill:#117ac0;fill-opacity:1" />
    <path
       d="M 252.13119,104.48694 C 237.93314,98.045781 222.75448,93.373058 206.88505,90.72087 204.9364,94.131234 202.65828,98.727853 201.08931,102.36558 184.21995,99.915058 167.50615,99.915058 150.94499,102.36558 149.37697,98.727853 147.04767,94.131234 145.08065,90.72087 129.19576,93.373058 113.99778,98.071466 99.801667,104.53831 71.166938,146.4701 63.407091,187.39257 67.287014,227.70905 86.278932,241.47608 104.68345,249.81126 122.77785,255.29352 127.24421,249.33181 131.22943,242.99149 134.66302,236.29727 128.12434,233.89718 121.86488,230.9168 115.94644,227.48169 117.51832,226.34492 119.05058,225.18244 120.53549,223.97051 156.62092,240.31361 195.82978,240.31361 231.4843,223.97051 232.98372,225.18244 234.51985,226.34492 236.07048,227.48169 230.13754,230.94249 223.85875,233.92286 217.32103,236.32296 220.75463,242.99149 224.72149,249.33181 229.2062,255.29352 247.31798,249.83695 265.74086,241.47608 284.73278,227.70905 289.2861,180.97613 276.95265,140.43323 252.13119,104.48694 Z M 139.57861,202.92803 C 128.74748,202.92803 119.8621,193.10219 119.8621,181.17874 119.8621,169.23058 128.55523,159.4038 139.57861,159.4038 150.60104,159.4038 159.48352,169.20491 159.29512,181.17874 159.31251,193.10219 150.60104,202.92803 139.57861,202.92803 Z M 212.43829,202.92803 C 201.60715,202.92803 192.72469,193.10219 192.72469,181.17874 192.72469,169.23058 201.41876,159.4038 212.43829,159.4038 223.46168,159.4038 232.34609,169.20491 232.15479,181.17874 232.15479,193.10219 223.46168,202.92803 212.43829,202.92803 Z"
       fill="#ffffff"
       fill-rule="evenodd"
       id="path9" />
  </g>
</svg>
