<svg xmlns="http://www.w3.org/2000/svg" viewBox="0 0 256 256"><defs><style>.a{fill:#dadada;}</style></defs><title>discord-icon</title><path class="a" d="M184.74,204.24s-7.43-8.76-13.55-16.69c26.93-7.6,37.18-24.45,37.18-24.45a110.2,110.2,0,0,1-23.63,12.06A127.88,127.88,0,0,1,155,183.92a146.82,146.82,0,0,1-53.19-.17A191.59,191.59,0,0,1,71.58,175a119.6,119.6,0,0,1-15-6.94c-.66-.33-1.15-.66-1.82-1a1.64,1.64,0,0,1-.82-.66c-3.64-2-5.78-3.47-5.78-3.47s9.91,16.35,36,24.28c-6.11,7.77-13.71,17-13.71,17C25,202.75,7.81,173,7.81,173c0-66.08,29.57-119.77,29.57-119.77C67,31.27,95,31.76,95,31.76l2,2.48C60,45,43,61.17,43,61.17s4.47-2.48,12.06-6c22-9.58,39.49-12.39,46.59-12.88a24.1,24.1,0,0,1,3.47-.33,172.18,172.18,0,0,1,41.47-.33,167.5,167.5,0,0,1,61.79,19.65S192.18,46,157.15,35.23l2.81-3.3s28.09-.66,57.66,21.64c0,0,29.57,53.53,29.57,119.77C247.52,173,230.17,202.92,184.74,204.24ZM89.25,108.42c-11.73,0-21,10.24-21,22.8s9.42,22.8,21,22.8c11.73,0,21-10.25,21-22.8C110.4,118.66,101,108.42,89.25,108.42Zm75,0c-11.73,0-21,10.24-21,22.8s9.42,22.8,21,22.8c11.73,0,21-10.25,21-22.8C185.07,118.66,176,108.42,164.26,108.42Z"/></svg>